<svg id="No-Image--Streamline-Carbon" xmlns="http://www.w3.org/2000/svg" viewBox="0 0 200 200" height="200" width="200">
  <desc>
    No Image Streamline Icon: https://streamlinehq.com
  </desc>
  <defs></defs>
  <title>no-image</title>
  <path d="M187.5 21.338124999999998 178.66187499999998 12.5 12.5 178.66187499999998 21.338124999999998 187.5l12.5 -12.5H162.5a12.516874999999999 12.516874999999999 0 0 0 12.5 -12.5V33.838125000000005ZM162.5 162.5H46.338125000000005l48.705625000000005 -48.706250000000004 14.8675 14.866874999999999a12.5 12.5 0 0 0 17.6775 0L137.5 118.75l25 24.983125Zm0 -36.448750000000004 -16.16125 -16.161875000000002a12.5 12.5 0 0 0 -17.6775 0L118.75 119.80125l-14.85625 -14.856875L162.5 46.338125000000005Z" fill="#000000" stroke-width="6.25"></path>
  <path d="M37.5 137.5v-18.75l31.25 -31.228749999999998 8.583124999999999 8.583124999999999 8.849375 -8.85 -8.59375 -8.59375a12.5 12.5 0 0 0 -17.6775 0L37.5 101.0725V37.5h100V25H37.5a12.5125 12.5125 0 0 0 -12.5 12.5v100Z" fill="#000000" stroke-width="6.25"></path>
  <path id="_Transparent_Rectangle_" d="M0 0h200v200H0Z" fill="none" stroke-width="6.25"></path>
</svg>