<svg width="16" height="17" viewBox="0 0 16 17" fill="none" xmlns="http://www.w3.org/2000/svg">
<path d="M8 0C5.829 0 5.556 0.010625 4.703 0.051C3.85 0.0935 3.269 0.235875 2.76 0.44625C2.22584 0.659096 1.74214 0.993861 1.343 1.42694C0.935398 1.85102 0.620326 2.36496 0.42 2.9325C0.222 3.47225 0.087 4.09062 0.048 4.99375C0.01 5.90219 0 6.19119 0 8.50106C0 10.8088 0.01 11.0978 0.048 12.0041C0.088 12.9094 0.222 13.5267 0.42 14.0675C0.625 14.6264 0.898 15.1002 1.343 15.5731C1.787 16.0459 2.233 16.337 2.759 16.5537C3.269 16.7641 3.849 16.9076 4.701 16.949C5.555 16.9894 5.827 17 8 17C10.173 17 10.444 16.9894 11.298 16.949C12.149 16.9065 12.732 16.7641 13.241 16.5537C13.7748 16.3408 14.2581 16.006 14.657 15.5731C15.102 15.1002 15.375 14.6264 15.58 14.0675C15.777 13.5267 15.912 12.9094 15.952 12.0041C15.99 11.0978 16 10.8088 16 8.5C16 6.19119 15.99 5.90219 15.952 4.99481C15.912 4.09063 15.777 3.47225 15.58 2.9325C15.3797 2.36496 15.0646 1.85102 14.657 1.42694C14.2579 0.993861 13.7742 0.659096 13.24 0.44625C12.73 0.235875 12.148 0.0924375 11.297 0.051C10.443 0.010625 10.172 0 7.998 0H8ZM7.283 1.53212H8.001C10.137 1.53212 10.39 1.53956 11.233 1.581C12.013 1.61819 12.437 1.75738 12.719 1.87319C13.092 2.02725 13.359 2.21213 13.639 2.50962C13.919 2.80713 14.092 3.08975 14.237 3.48713C14.347 3.78569 14.477 4.23619 14.512 5.06494C14.551 5.96063 14.559 6.22944 14.559 8.49788C14.559 10.7663 14.551 11.0362 14.512 11.9319C14.477 12.7606 14.346 13.2101 14.237 13.5097C14.1078 13.8783 13.9032 14.2118 13.638 14.4861C13.358 14.7836 13.092 14.9674 12.718 15.1215C12.438 15.2384 12.014 15.3765 11.233 15.4148C10.39 15.4551 10.137 15.4647 8.001 15.4647C5.865 15.4647 5.611 15.4551 4.768 15.4148C3.988 15.3765 3.565 15.2384 3.283 15.1215C2.93583 14.9847 2.6216 14.7677 2.363 14.4861C2.09727 14.2116 1.89233 13.8777 1.763 13.5086C1.654 13.2101 1.523 12.7596 1.488 11.9308C1.45 11.0351 1.442 10.7663 1.442 8.49575C1.442 6.22519 1.45 5.9585 1.488 5.06281C1.524 4.23406 1.654 3.78356 1.764 3.48394C1.909 3.08763 2.083 2.80394 2.363 2.50644C2.643 2.20894 2.909 2.02513 3.283 1.87106C3.565 1.75419 3.988 1.61606 4.768 1.57781C5.506 1.54169 5.792 1.53106 7.283 1.53V1.53212ZM12.271 2.94313C12.1449 2.94313 12.0201 2.96951 11.9036 3.02077C11.7872 3.07203 11.6813 3.14716 11.5922 3.24188C11.503 3.33659 11.4323 3.44904 11.3841 3.57279C11.3358 3.69654 11.311 3.82918 11.311 3.96312C11.311 4.09707 11.3358 4.22971 11.3841 4.35346C11.4323 4.47721 11.503 4.58966 11.5922 4.68437C11.6813 4.77909 11.7872 4.85422 11.9036 4.90548C12.0201 4.95674 12.1449 4.98313 12.271 4.98313C12.5256 4.98313 12.7698 4.87566 12.9498 4.68437C13.1299 4.49309 13.231 4.23365 13.231 3.96312C13.231 3.6926 13.1299 3.43316 12.9498 3.24188C12.7698 3.05059 12.5256 2.94313 12.271 2.94313ZM8.001 4.13525C7.45607 4.12622 6.91489 4.23245 6.40898 4.44777C5.90306 4.6631 5.44251 4.9832 5.05415 5.38945C4.66579 5.7957 4.35736 6.27998 4.14684 6.81409C3.93632 7.3482 3.8279 7.92147 3.8279 8.50053C3.8279 9.07959 3.93632 9.65286 4.14684 10.187C4.35736 10.7211 4.66579 11.2054 5.05415 11.6116C5.44251 12.0179 5.90306 12.338 6.40898 12.5533C6.91489 12.7686 7.45607 12.8748 8.001 12.8658C9.07954 12.8479 10.1082 12.3802 10.865 11.5635C11.6217 10.7467 12.0459 9.64662 12.0459 8.50053C12.0459 7.35444 11.6217 6.25431 10.865 5.43761C10.1082 4.6209 9.07954 4.15313 8.001 4.13525ZM8.001 5.66631C8.35124 5.66631 8.69804 5.73961 9.02162 5.88201C9.34519 6.02442 9.6392 6.23315 9.88685 6.49628C10.1345 6.75941 10.331 7.0718 10.465 7.4156C10.599 7.75939 10.668 8.12788 10.668 8.5C10.668 8.87212 10.599 9.24061 10.465 9.5844C10.331 9.9282 10.1345 10.2406 9.88685 10.5037C9.6392 10.7669 9.34519 10.9756 9.02162 11.118C8.69804 11.2604 8.35124 11.3337 8.001 11.3337C7.29367 11.3337 6.61531 11.0351 6.11515 10.5037C5.61499 9.9723 5.334 9.25154 5.334 8.5C5.334 7.74846 5.61499 7.0277 6.11515 6.49628C6.61531 5.96486 7.29367 5.66631 8.001 5.66631Z" fill="#515151"/>
</svg>
