<svg width="19" height="18" viewBox="0 0 19 18" fill="none" xmlns="http://www.w3.org/2000/svg">
<path d="M13.7103 11.6361C14.7996 10.1495 15.2874 8.30632 15.0763 6.47538C14.8652 4.64443 13.9706 2.96073 12.5715 1.76112C11.1725 0.56151 9.37214 -0.065537 7.53069 0.00542765C5.68923 0.0763923 3.94246 0.840135 2.63986 2.14386C1.33725 3.44758 0.574864 5.19514 0.505227 7.0369C0.43559 8.87867 1.06384 10.6788 2.26428 12.0772C3.46472 13.4756 5.14882 14.3691 6.97966 14.579C8.8105 14.7888 10.6531 14.2995 12.1387 13.209H12.1376C12.1706 13.254 12.2073 13.2972 12.2478 13.3384L16.5789 17.6701C16.7898 17.8812 17.076 17.9999 17.3744 18C17.6728 18.0001 17.9591 17.8816 18.1702 17.6707C18.3812 17.4597 18.4999 17.1735 18.5 16.8751C18.5001 16.5766 18.3817 16.2903 18.1707 16.0792L13.8396 11.7475C13.7994 11.7068 13.7562 11.6703 13.7103 11.6361ZM14.0005 7.31117C14.0005 8.12381 13.8405 8.92849 13.5295 9.67927C13.2186 10.43 12.7628 11.1122 12.1883 11.6868C11.6138 12.2615 10.9317 12.7173 10.181 13.0283C9.43033 13.3392 8.62576 13.4993 7.81324 13.4993C7.00071 13.4993 6.19615 13.3392 5.44547 13.0283C4.6948 12.7173 4.01272 12.2615 3.43818 11.6868C2.86364 11.1122 2.40788 10.43 2.09695 9.67927C1.78601 8.92849 1.62597 8.12381 1.62597 7.31117C1.62597 5.66997 2.27784 4.096 3.43818 2.9355C4.59851 1.77499 6.17227 1.12303 7.81324 1.12303C9.4542 1.12303 11.028 1.77499 12.1883 2.9355C13.3486 4.096 14.0005 5.66997 14.0005 7.31117Z" fill="#515151"/>
</svg>
